<?xml version="1.0" encoding="utf-8"?>
<!-- Generator: Adobe Illustrator 16.0.0, SVG Export Plug-In . SVG Version: 6.00 Build 0)  -->
<!DOCTYPE svg PUBLIC "-//W3C//DTD SVG 1.1//EN" "http://www.w3.org/Graphics/SVG/1.1/DTD/svg11.dtd">
<svg version="1.1" id="Capa_1" xmlns="http://www.w3.org/2000/svg" xmlns:xlink="http://www.w3.org/1999/xlink" x="0px" y="0px"
	 width="34.895px" height="34.895px" viewBox="0 0 34.895 34.895" enable-background="new 0 0 34.895 34.895" xml:space="preserve">
<g>
	<path fill="#FFFFFF" d="M17.445,0C7.827,0,0,7.829,0,17.446c0,9.622,7.827,17.448,17.445,17.448
		c9.622,0,17.449-7.826,17.449-17.448C34.895,7.829,27.067,0,17.445,0L17.445,0z M21.786,18.06h-2.838v10.121h-4.207V18.06h-2
		v-3.574h2v-2.314c0-1.653,0.786-4.244,4.245-4.244l3.115,0.014v3.471h-2.261c-0.37,0-0.893,0.184-0.893,0.974v2.104h3.205
		L21.786,18.06z M21.786,18.06"/>
</g>
</svg>
