<?xml version="1.0" encoding="utf-8"?>
<!-- Generator: Adobe Illustrator 16.0.0, SVG Export Plug-In . SVG Version: 6.00 Build 0)  -->
<!DOCTYPE svg PUBLIC "-//W3C//DTD SVG 1.1//EN" "http://www.w3.org/Graphics/SVG/1.1/DTD/svg11.dtd">
<svg version="1.1" id="Capa_1" xmlns="http://www.w3.org/2000/svg" xmlns:xlink="http://www.w3.org/1999/xlink" x="0px" y="0px"
	 width="43.99px" height="42.789px" viewBox="0 0 43.99 42.789" enable-background="new 0 0 43.99 42.789" xml:space="preserve">
<g>
	<path fill="none" stroke="#FFFFFF" stroke-width="1.3" stroke-miterlimit="10" d="M22.518,1.469
		c-10.992,0-19.938,8.946-19.938,19.938c0,10.996,8.946,19.941,19.938,19.941c10.997,0,19.942-8.945,19.942-19.941
		C42.46,10.415,33.515,1.469,22.518,1.469L22.518,1.469z M27.478,22.108h-3.242v11.566h-4.807V22.108h-2.287v-4.085h2.287v-2.644
		c0-1.891,0.898-4.852,4.852-4.852l3.559,0.016v3.965h-2.584c-0.422,0-1.02,0.212-1.02,1.114v2.404h3.664L27.478,22.108z
		 M27.478,22.108"/>
</g>
</svg>
