<?xml version="1.0" encoding="utf-8"?>
<!-- Generator: Adobe Illustrator 16.0.0, SVG Export Plug-In . SVG Version: 6.00 Build 0)  -->
<!DOCTYPE svg PUBLIC "-//W3C//DTD SVG 1.1//EN" "http://www.w3.org/Graphics/SVG/1.1/DTD/svg11.dtd">
<svg version="1.1" id="Capa_1" xmlns="http://www.w3.org/2000/svg" xmlns:xlink="http://www.w3.org/1999/xlink" x="0px" y="0px"
	 width="34.895px" height="34.895px" viewBox="0 0 34.895 34.895" enable-background="new 0 0 34.895 34.895" xml:space="preserve">
<g>
	<path fill="#FFFFFF" d="M27.288,1.404H7.604c-3.419,0-6.199,2.78-6.199,6.199v6.552v2.41v10.724c0,3.419,2.78,6.2,6.199,6.2h19.684
		c3.419,0,6.202-2.781,6.202-6.2v-10.72v-2.414V7.604C33.49,4.185,30.707,1.404,27.288,1.404z M29.068,5.104l0.707-0.006v0.709
		v4.729l-5.417,0.019l-0.021-5.438L29.068,5.104z M12.868,14.155c1.028-1.423,2.695-2.354,4.58-2.354
		c1.884,0,3.55,0.932,4.578,2.354c0.124,0.172,0.235,0.353,0.339,0.538c0.461,0.814,0.73,1.753,0.73,2.753
		c0,3.112-2.535,5.646-5.647,5.646c-3.114,0-5.649-2.533-5.649-5.646c0-1,0.27-1.938,0.73-2.754
		C12.635,14.508,12.744,14.327,12.868,14.155z M30.364,27.289c0,1.696-1.38,3.075-3.076,3.075H7.604
		c-1.696,0-3.073-1.379-3.073-3.075V15.817v-1.662H9.32c-0.121,0.294-0.223,0.596-0.31,0.904c-0.218,0.759-0.337,1.559-0.337,2.387
		c0,4.838,3.936,8.773,8.774,8.773c4.837,0,8.772-3.936,8.772-8.773c0-0.828-0.121-1.628-0.337-2.388
		c-0.089-0.308-0.191-0.61-0.31-0.903h4.79v1.664V27.289z"/>
</g>
</svg>
