<?xml version="1.0" encoding="utf-8"?>
<!-- Generator: Adobe Illustrator 16.0.0, SVG Export Plug-In . SVG Version: 6.00 Build 0)  -->
<!DOCTYPE svg PUBLIC "-//W3C//DTD SVG 1.1//EN" "http://www.w3.org/Graphics/SVG/1.1/DTD/svg11.dtd">
<svg version="1.1" id="Capa_1" xmlns="http://www.w3.org/2000/svg" xmlns:xlink="http://www.w3.org/1999/xlink" x="0px" y="0px"
	 width="31.762px" height="33.692px" viewBox="0 0 31.762 33.692" enable-background="new 0 0 31.762 33.692" xml:space="preserve">
<g>
	<path fill="#FFFFFF" d="M25.731,21.646c-1.938,0-3.665,0.924-4.771,2.351l-9.256-5.169c0.217-0.623,0.336-1.295,0.336-1.988
		c0-0.7-0.119-1.365-0.344-1.994l9.25-5.163c1.099,1.434,2.833,2.365,4.777,2.365c3.316,0,6.023-2.701,6.023-6.024
		C31.748,2.7,29.047,0,25.724,0c-3.322,0-6.023,2.7-6.023,6.023c0,0.699,0.119,1.371,0.343,1.994l-9.241,5.163
		c-1.099-1.441-2.833-2.365-4.778-2.365c-3.316,0-6.024,2.7-6.024,6.023c0,3.323,2.708,6.024,6.031,6.024
		c1.945,0,3.68-0.931,4.784-2.372l9.25,5.17c-0.224,0.63-0.351,1.309-0.351,2.008c0,3.316,2.702,6.023,6.024,6.023
		c3.323,0,6.023-2.7,6.023-6.023S29.054,21.646,25.731,21.646L25.731,21.646z M25.731,1.896c2.281,0,4.136,1.854,4.136,4.135
		c0,2.281-1.854,4.134-4.136,4.134c-2.28,0-4.134-1.854-4.134-4.134C21.597,3.75,23.458,1.896,25.731,1.896L25.731,1.896z
		 M6.031,20.974c-2.281,0-4.135-1.854-4.135-4.134s1.854-4.134,4.135-4.134c2.28,0,4.134,1.854,4.134,4.134
		S8.304,20.974,6.031,20.974L6.031,20.974z M25.731,31.797c-2.28,0-4.134-1.854-4.134-4.135s1.854-4.135,4.134-4.135
		c2.281,0,4.136,1.854,4.136,4.135S28.012,31.797,25.731,31.797L25.731,31.797z M25.731,31.797"/>
</g>
</svg>
