<?xml version="1.0" encoding="utf-8"?>
<!-- Generator: Adobe Illustrator 16.0.0, SVG Export Plug-In . SVG Version: 6.00 Build 0)  -->
<!DOCTYPE svg PUBLIC "-//W3C//DTD SVG 1.1//EN" "http://www.w3.org/Graphics/SVG/1.1/DTD/svg11.dtd">
<svg version="1.1" id="Capa_1" xmlns="http://www.w3.org/2000/svg" xmlns:xlink="http://www.w3.org/1999/xlink" x="0px" y="0px"
	 width="43.99px" height="42.789px" viewBox="0 0 43.99 42.789" enable-background="new 0 0 43.99 42.789" xml:space="preserve">
<g>
	<path fill="none" stroke="#FFFFFF" stroke-width="1.3" stroke-miterlimit="10" d="M43.156,9.276
		c-1.513,0.67-3.149,1.134-4.863,1.339c1.749-1.048,3.086-2.71,3.728-4.688c-1.637,0.968-3.45,1.676-5.389,2.052
		c-1.537-1.638-3.742-2.667-6.174-2.667c-4.672,0-8.464,3.791-8.464,8.464c0,0.666,0.075,1.308,0.214,1.927
		c-7.04-0.355-13.275-3.718-17.457-8.845c-0.73,1.247-1.145,2.709-1.145,4.26c0,2.933,1.496,5.529,3.765,7.039
		c-1.387-0.035-2.682-0.424-3.829-1.058v0.104c0,4.105,2.922,7.529,6.789,8.312c-0.705,0.188-1.459,0.289-2.228,0.289
		c-0.542,0-1.072-0.051-1.601-0.15c1.083,3.361,4.207,5.807,7.912,5.881c-2.897,2.268-6.551,3.615-10.518,3.615
		c-0.679,0-1.349-0.038-2.016-0.112c3.752,2.406,8.2,3.804,12.986,3.804c15.569,0,24.083-12.897,24.083-24.083l-0.025-1.097
		C40.585,12.464,42.021,10.979,43.156,9.276L43.156,9.276z M43.156,9.276"/>
</g>
</svg>
