<?xml version="1.0" encoding="utf-8"?>
<!-- Generator: Adobe Illustrator 16.0.0, SVG Export Plug-In . SVG Version: 6.00 Build 0)  -->
<!DOCTYPE svg PUBLIC "-//W3C//DTD SVG 1.1//EN" "http://www.w3.org/Graphics/SVG/1.1/DTD/svg11.dtd">
<svg version="1.1" id="Capa_1" xmlns="http://www.w3.org/2000/svg" xmlns:xlink="http://www.w3.org/1999/xlink" x="0px" y="0px"
	 width="34.895px" height="34.895px" viewBox="0 0 34.895 34.895" enable-background="new 0 0 34.895 34.895" xml:space="preserve">
<g>
	<path fill="#FFFFFF" d="M31.388,10.232c-1.019,0.451-2.12,0.764-3.274,0.901c1.178-0.706,2.078-1.825,2.51-3.157
		c-1.102,0.652-2.323,1.129-3.629,1.382c-1.035-1.103-2.52-1.796-4.156-1.796c-3.146,0-5.7,2.553-5.7,5.699
		c0,0.449,0.051,0.881,0.145,1.298c-4.741-0.239-8.939-2.504-11.755-5.956c-0.492,0.84-0.771,1.824-0.771,2.868
		c0,1.976,1.008,3.724,2.535,4.74c-0.934-0.023-1.806-0.286-2.578-0.712v0.069c0,2.765,1.968,5.07,4.571,5.597
		c-0.475,0.127-0.982,0.195-1.5,0.195c-0.365,0-0.722-0.034-1.078-0.102c0.729,2.264,2.833,3.909,5.327,3.96
		c-1.951,1.526-4.411,2.435-7.082,2.435c-0.457,0-0.908-0.025-1.357-0.076c2.526,1.62,5.521,2.562,8.744,2.562
		c10.483,0,16.217-8.685,16.217-16.217l-0.018-0.738C29.656,12.379,30.623,11.379,31.388,10.232L31.388,10.232z M31.388,10.232"/>
</g>
</svg>
